HIERARCHY
ROOT Hips
{
 OFFSET 0.000000 0.000000 0.000000
 CHANNELS 6 Xposition Yposition Zposition Yrotation Xrotation Zrotation
 JOINT Chest
 {
  OFFSET 0.000000 9.585900 0.002600
  CHANNELS 3 Yrotation Xrotation Zrotation
  JOINT Chest2
  {
   OFFSET 0.000000 9.601200 -0.005300
   CHANNELS 3 Yrotation Xrotation Zrotation
   JOINT Chest3
   {
    OFFSET 0.000000 9.561800 0.000000
    CHANNELS 3 Yrotation Xrotation Zrotation
    JOINT Chest4
    {
     OFFSET 0.000000 9.552100 0.000000
     CHANNELS 3 Yrotation Xrotation Zrotation
     JOINT Neck
     {
      OFFSET 0.000000 14.453000 0.000000
      CHANNELS 3 Yrotation Xrotation Zrotation
      JOINT Head
      {
       OFFSET 0.000000 8.936500 -0.011300
       CHANNELS 3 Yrotation Xrotation Zrotation
       End Site
       {
        OFFSET 0.000000 17.073600 -0.006000
       }
      }
     }
     JOINT RightCollar
     {
      OFFSET -2.921100 9.558500 0.000000
      CHANNELS 3 Yrotation Xrotation Zrotation
      JOINT RightShoulder
      {
       OFFSET -13.519700 0.000000 0.000000
       CHANNELS 3 Yrotation Xrotation Zrotation
       JOINT RightElbow
       {
        OFFSET 0.000000 -29.696600 0.000000
        CHANNELS 3 Yrotation Xrotation Zrotation
        JOINT RightWrist
        {
         OFFSET 0.000000 -24.004700 0.000000
         CHANNELS 3 Yrotation Xrotation Zrotation
         End Site
         {
          OFFSET 0.000000 -17.728500 0.000000
         }
        }
       }
      }
     }
     JOINT LeftCollar
     {
      OFFSET 2.921100 9.558500 0.000000
      CHANNELS 3 Yrotation Xrotation Zrotation
      JOINT LeftShoulder
      {
       OFFSET 13.519700 0.000000 0.000000
       CHANNELS 3 Yrotation Xrotation Zrotation
       JOINT LeftElbow
       {
        OFFSET 0.000000 -29.696600 0.000000
        CHANNELS 3 Yrotation Xrotation Zrotation
        JOINT LeftWrist
        {
         OFFSET 0.000000 -24.004700 0.000000
         CHANNELS 3 Yrotation Xrotation Zrotation
         End Site
         {
          OFFSET 0.000000 -17.728500 0.000000
         }
        }
       }
      }
     }
    }
   }
  }
 }
 JOINT RightHip
 {
  OFFSET -7.771700 -0.012900 -0.001300
  CHANNELS 3 Yrotation Xrotation Zrotation
  JOINT RightKnee
  {
   OFFSET 0.000000 -40.869800 0.001200
   CHANNELS 3 Yrotation Xrotation Zrotation
   JOINT RightAnkle
   {
    OFFSET 0.000000 -39.717900 0.002100
    CHANNELS 3 Yrotation Xrotation Zrotation
    JOINT RightToe
    {
     OFFSET 0.000000 -4.965400 11.033500
     CHANNELS 3 Yrotation Xrotation Zrotation
     End Site
     {
      OFFSET 0.000000 -1.423100 5.872300
     }
    }
   }
  }
 }
 JOINT LeftHip
 {
  OFFSET 7.771700 -0.012900 -0.001300
  CHANNELS 3 Yrotation Xrotation Zrotation
  JOINT LeftKnee
  {
   OFFSET 0.000000 -40.869800 0.001200
   CHANNELS 3 Yrotation Xrotation Zrotation
   JOINT LeftAnkle
   {
    OFFSET 0.000000 -39.717900 0.002100
    CHANNELS 3 Yrotation Xrotation Zrotation
    JOINT LeftToe
    {
     OFFSET 0.000000 -4.965400 11.033500
     CHANNELS 3 Yrotation Xrotation Zrotation
     End Site
     {
      OFFSET 0.000000 -1.423100 5.872300
     }
    }
   }
  }
 }
}
MOTION
Frames: 9
Frame Time: 0.008333
-215.068361 57.720612 -71.534084 159.024360 -6.626549 0.634275 4.802261 5.471825 1.102171 0.223548 0.213511 0.010925 0.318504 0.423948 0.017254 4.312546 5.216285 0.406060 -5.532018 18.067197 -2.355898 -9.402075 -2.231500 -2.524841 4.582618 3.041688 -0.373870 3.770240 -23.172944 -28.914523 -76.429908 -70.467134 109.310054 -2.134468 -0.266142 -6.375875 0.090012 3.979837 3.620302 16.817591 -10.135657 17.539610 82.510490 -69.977493 -128.448397 -2.416573 1.277691 -5.034131 -18.111931 -64.947658 10.037686 -31.829934 73.026447 -31.580795 -2.959141 -7.589501 -2.797495 -0.106291 0.659654 -0.076103 1.796518 -67.653610 15.504939 41.642768 65.967287 35.011119 -17.411862 -11.064133 3.775241 -0.355444 -1.031255 -0.186827
-215.050652 57.710840 -71.564165 159.082157 -6.605967 0.637812 4.823794 5.397046 1.100512 0.175457 0.244211 0.009375 0.368615 0.385748 0.017716 4.317440 5.193105 0.402681 -5.708125 18.070390 -2.330858 -9.734075 -2.218916 -2.421933 4.667156 2.829106 -0.471926 3.595557 -23.572201 -29.631960 -77.285669 -70.021936 110.334838 -2.260206 -0.314830 -6.432911 0.201869 3.850267 3.740110 17.233708 -10.350123 17.981563 82.684737 -69.666197 -128.827001 -2.366530 1.218450 -5.021820 -18.171997 -64.971808 10.013501 -31.907709 73.091260 -31.630157 -2.948084 -7.661839 -2.818496 -0.103104 0.680827 -0.069691 1.777634 -67.681591 15.497786 41.645761 66.007917 35.012026 -17.421278 -11.054001 3.753283 -0.347388 -1.039447 -0.157476
-215.031380 57.703302 -71.599445 159.131357 -6.623956 0.632716 4.851503 5.359995 1.110836 0.128946 0.274882 0.007903 0.401616 0.361209 0.018055 4.337753 5.164329 0.398928 -5.869869 18.071580 -2.305526 -10.039771 -2.209896 -2.323035 4.742017 2.632823 -0.570233 3.409357 -23.955351 -30.312596 -78.003099 -69.591213 111.218823 -2.375450 -0.359015 -6.424305 0.314346 3.729938 3.852645 17.649586 -10.587608 18.382562 82.874148 -69.421137 -129.201086 -2.321024 1.158708 -5.017260 -18.211691 -64.956011 9.991193 -32.027008 73.147911 -31.727870 -2.960503 -7.716969 -2.841037 -0.076422 0.684699 -0.053435 1.755832 -67.669394 15.507069 41.678337 66.058480 35.041994 -17.435369 -11.084575 3.754552 -0.336011 -1.021416 -0.146735
-215.014196 57.698696 -71.643491 159.066229 -6.694564 0.659913 4.944506 5.411222 1.101215 0.163461 0.251053 0.008069 0.399234 0.362212 0.020070 4.316316 5.172619 0.396709 -5.947399 18.071540 -2.292950 -10.355743 -2.233998 -2.205506 4.847034 2.430683 -0.674139 3.216066 -24.324259 -30.951189 -78.671936 -69.207025 112.038693 -2.477758 -0.390276 -6.351581 0.461750 3.590142 3.944792 18.060145 -10.837172 18.753984 83.144044 -69.235993 -129.623188 -2.282989 1.103062 -5.013595 -18.067543 -64.895636 9.874111 -32.087547 73.214131 -31.768193 -2.922420 -7.821265 -2.864065 -0.101830 0.742181 -0.045334 1.888839 -67.601356 15.466893 41.847003 66.116129 35.185493 -17.395641 -11.087249 3.808624 -0.419254 -1.085984 -0.183570
-215.007762 57.694959 -71.678152 159.117977 -6.702179 0.702858 4.962882 5.373855 1.066676 0.147333 0.256382 0.003845 0.371534 0.383196 0.020188 4.324734 5.161096 0.393534 -6.064179 18.022045 -2.264629 -10.602009 -2.222182 -2.135272 4.942776 2.262546 -0.769683 3.008304 -24.688814 -31.540616 -79.340167 -68.886203 112.844848 -2.554291 -0.402416 -6.228766 0.598071 3.467672 4.018333 18.460791 -11.082707 19.109878 83.533411 -69.100749 -130.120387 -2.255590 1.053033 -5.010429 -18.008074 -64.906810 9.714651 -32.105669 73.286034 -31.762192 -2.899554 -7.882438 -2.873915 -0.118823 0.759023 -0.048215 1.965497 -67.593719 15.342039 41.935916 66.142175 35.256128 -17.389489 -11.086939 3.822084 -0.459551 -1.086000 -0.191460
-214.999158 57.693226 -71.709523 159.144237 -6.708894 0.719158 5.011197 5.339031 1.064114 0.134268 0.260185 0.002154 0.340138 0.401109 0.016729 4.434967 5.078669 0.398122 -6.272757 18.043479 -2.243698 -10.838228 -2.215678 -2.073078 4.917997 2.192686 -0.850159 2.780390 -25.049170 -32.071828 -80.052968 -68.636660 113.684865 -2.593347 -0.387863 -6.072220 0.617223 3.433692 4.075607 18.852335 -11.309726 19.456914 84.057868 -69.003061 -130.711195 -2.237578 1.010058 -5.010652 -17.969018 -64.908239 9.632824 -32.174612 73.335629 -31.814284 -2.899886 -7.926170 -2.876169 -0.114383 0.766892 -0.048415 2.039361 -67.589081 15.282997 41.953086 66.185767 35.260381 -17.425242 -11.088233 3.818111 -0.455720 -1.079468 -0.169903
-214.991471 57.693352 -71.738221 159.172729 -6.713034 0.724081 5.044266 5.316291 1.070075 0.130146 0.251174 0.001123 0.391530 0.379277 0.022992 4.432223 5.068998 0.399218 -6.421861 18.048342 -2.231957 -11.079353 -2.227455 -2.008007 4.904914 2.104718 -0.930282 2.535055 -25.393001 -32.543347 -80.858748 -68.464848 114.601022 -2.595232 -0.352904 -5.893285 0.656436 3.383587 4.109446 19.234674 -11.510376 19.797195 84.708829 -68.930308 -131.393117 -2.228303 0.976218 -5.016619 -17.945048 -64.909411 9.571808 -32.247048 73.378586 -31.872100 -2.894636 -7.951582 -2.878426 -0.119231 0.755030 -0.042432 2.094884 -67.586901 15.235725 41.967848 66.222842 35.265628 -17.445717 -11.101788 3.844316 -0.455839 -1.067352 -0.177897
-214.986367 57.695293 -71.766348 159.212366 -6.723672 0.730142 5.035428 5.315343 1.067664 0.212610 0.221786 0.012382 0.360165 0.389345 0.019932 4.437135 5.050116 0.403408 -6.546008 18.037001 -2.226031 -11.309956 -2.242795 -1.956157 4.889778 2.010739 -1.010857 2.277770 -25.708527 -32.958340 -81.792507 -68.362673 115.616325 -2.561746 -0.311696 -5.708690 0.698747 3.337153 4.121516 19.612798 -11.682749 20.123663 85.453148 -68.871531 -132.145227 -2.227389 0.951709 -5.028943 -17.917460 -64.903310 9.498148 -32.312657 73.416545 -31.926265 -2.892225 -7.972624 -2.894574 -0.123484 0.742151 -0.018608 2.213454 -67.575222 15.132965 41.911867 66.258331 35.217612 -17.502323 -11.121047 3.853189 -0.416015 -1.042030 -0.159061
-214.987903 57.698167 -71.790132 159.281710 -6.711609 0.749635 5.043480 5.283700 1.059040 0.213361 0.219837 0.012765 0.345615 0.392061 0.017957 4.456470 5.020706 0.410576 -6.664508 18.024201 -2.225580 -11.528494 -2.261383 -1.916066 4.856892 1.928039 -1.092347 2.008952 -25.995030 -33.316143 -82.857129 -68.310913 116.730340 -2.498061 -0.269789 -5.532830 0.726324 3.310488 4.118803 19.996887 -11.824917 20.427195 86.246973 -68.814684 -132.941553 -2.230678 0.937083 -5.048330 -17.918350 -64.922603 9.423427 -32.368546 73.448723 -31.985227 -2.901963 -7.998337 -2.895685 -0.131259 0.753449 -0.016475 2.247373 -67.585992 15.039856 41.956670 66.271067 35.241915 -17.490752 -11.105438 3.862168 -0.437181 -1.049764 -0.155896
